<svg width="1059" height="271" viewBox="0 0 1059 271" fill="none" xmlns="http://www.w3.org/2000/svg">
<mask id="mask0_429_208" style="mask-type:luminance" maskUnits="userSpaceOnUse" x="0" y="58" width="203" height="156">
<path d="M202.089 58H0V214H202.089V58Z" fill="white"/>
</mask>
<g mask="url(#mask0_429_208)">
<path d="M97.1329 58L48.9565 214H0L25.1665 132.534C25.1846 132.507 25.1926 132.476 25.1894 132.444L48.1765 58H97.1329Z" fill="#BE123C"/>
<path d="M153.339 58L105.162 214H56.2059L80.8677 134.142L104.382 58H153.339Z" fill="#BE123C"/>
<path d="M202.088 214H153.155L144.46 185.874V185.851L132.599 147.448L157.078 68.209L202.088 214Z" fill="#BE123C"/>
<g style="mix-blend-mode:screen" opacity="0.4">
<path d="M90.9158 62.5889L6.21692 209.412L51.5717 62.5889H90.9158Z" fill="#282A36"/>
</g>
<g style="mix-blend-mode:screen" opacity="0.4">
<path d="M147.122 62.5889L62.4229 209.412L107.778 62.5889H147.122Z" fill="#282A36"/>
</g>
<g style="mix-blend-mode:multiply" opacity="0.3">
<path d="M157.078 68.21L144.46 185.864L132.595 147.449L157.078 68.21Z" fill="black"/>
</g>
<g style="mix-blend-mode:multiply" opacity="0.3">
<path d="M153.339 58L105.162 214H56.2059C64.373 213.518 72.5171 213.312 80.6842 212.945L92.9118 212.578L103.855 212.323C107.479 199.637 111.219 186.974 115.073 174.335L121.038 154.835L127.14 135.358C131.292 122.396 135.491 109.457 139.827 96.5412C142.029 90.1176 144.185 83.6482 146.457 77.2476C148.728 70.8471 150.953 64.3754 153.339 58Z" fill="black"/>
</g>
<g style="mix-blend-mode:multiply" opacity="0.3">
<path d="M97.1329 58L48.9565 214H0C8.16706 213.518 16.3112 213.312 24.4782 212.945L36.7059 212.578L47.6488 212.323C51.2735 199.637 55.0129 186.974 58.8671 174.335L64.8318 154.835L70.9341 135.358C75.0865 122.396 79.2847 109.457 83.6206 96.5412C85.8229 90.1176 87.9794 83.6482 90.2506 77.2476C92.5218 70.8471 94.7471 64.3754 97.1329 58Z" fill="black"/>
</g>
<g style="mix-blend-mode:multiply" opacity="0.3">
<path d="M83.7363 58C77.8175 58.6171 71.8987 59.0094 65.9569 59.3076C62.9975 59.4682 60.0381 59.6288 57.0787 59.7206C54.624 59.8124 52.1693 59.9041 49.7145 59.95C48.9575 62.6341 48.2004 65.2976 47.4204 67.9794L44.5987 77.3188C43.681 80.4135 42.6487 83.5129 41.6851 86.6099C40.7216 89.707 39.7122 92.8041 38.6798 95.8782C37.6475 98.9523 36.6381 102.072 35.5369 105.123C34.4357 108.175 33.4034 111.272 32.2793 114.323C30.054 120.425 27.7369 126.459 25.1904 132.446L48.1775 58.0023L83.7363 58Z" fill="black"/>
</g>
<g style="mix-blend-mode:multiply" opacity="0.3">
<path d="M140.721 58C134.665 58.6171 128.608 59.0094 122.552 59.3076C119.524 59.4881 116.495 59.6258 113.467 59.7206C110.944 59.8124 108.443 59.9041 105.919 59.9706L103.556 68.1629L100.689 77.7065L97.7065 87.2018C96.72 90.3929 95.6877 93.5336 94.6324 96.6765C93.5771 99.8195 92.5447 102.985 91.4206 106.128C90.2965 109.271 89.2642 112.416 88.0942 115.514C85.8459 121.776 83.46 127.994 80.8677 134.142L104.382 58H140.721Z" fill="black"/>
</g>
<g style="mix-blend-mode:multiply" opacity="0.3">
<path d="M177.61 212.92C184.974 212.67 192.315 212.462 199.679 212.304C197.913 207.004 196.192 201.705 194.472 196.382C192.499 190.349 190.572 184.292 188.691 178.211C184.859 166.1 181.166 153.918 177.495 141.759L172.104 123.45L166.874 105.097C165.176 98.9717 163.455 92.8489 161.872 86.7007C160.244 80.5294 158.569 74.4018 157.078 68.21L202.088 214.001H153.155C161.299 213.483 169.466 213.267 177.61 212.92Z" fill="black"/>
</g>
</g>
<path d="M275.914 145.294L269.382 130.526L266.4 145.294L256.744 194H240.982L262.566 89.63H264.27L292.954 146.004L301.474 164.89L309.994 146.004L338.11 89.63H339.672L362.108 194H346.488L335.98 145.294L332.856 130.526L327.176 145.294L301.9 194H301.048L275.914 145.294ZM405.493 195.42C398.772 195.42 392.808 193.905 387.601 190.876C382.395 187.847 378.371 183.729 375.531 178.522C372.691 173.315 371.271 167.541 371.271 161.198C371.271 154.95 372.644 149.223 375.389 144.016C378.229 138.809 382.253 134.691 387.459 131.662C392.666 128.633 398.677 127.118 405.493 127.118C412.309 127.118 418.273 128.633 423.385 131.662C428.592 134.691 432.568 138.809 435.313 144.016C438.153 149.223 439.573 154.95 439.573 161.198C439.573 167.541 438.153 173.315 435.313 178.522C432.473 183.729 428.45 187.847 423.243 190.876C418.131 193.905 412.215 195.42 405.493 195.42ZM405.919 182.924C411.41 182.924 415.717 180.889 418.841 176.818C422.06 172.747 423.669 167.635 423.669 161.482C423.669 155.329 421.965 150.169 418.557 146.004C415.149 141.744 410.653 139.614 405.067 139.614C399.671 139.614 395.317 141.697 392.003 145.862C388.785 150.027 387.175 155.234 387.175 161.482C387.175 167.541 388.927 172.653 392.429 176.818C395.932 180.889 400.429 182.924 405.919 182.924ZM445.585 128.822H463.051L477.109 158.216L481.653 170.002L486.197 158.216L500.113 128.822H517.153L482.931 194H479.949L445.585 128.822ZM528.087 128.822H543.991V194H528.087V128.822ZM535.897 116.61C532.962 116.61 530.501 115.616 528.513 113.628C526.525 111.64 525.531 109.179 525.531 106.244C525.531 103.593 526.525 101.321 528.513 99.428C530.501 97.5347 532.962 96.588 535.897 96.588C538.737 96.588 541.151 97.5347 543.139 99.428C545.127 101.321 546.121 103.593 546.121 106.244C546.121 109.179 545.127 111.64 543.139 113.628C541.246 115.616 538.832 116.61 535.897 116.61ZM596.039 195.42C588.276 195.42 581.791 193.905 576.585 190.876C571.378 187.752 567.544 183.634 565.083 178.522C562.621 173.315 561.391 167.635 561.391 161.482C561.391 154.571 562.811 148.513 565.651 143.306C568.585 138.099 572.609 134.123 577.721 131.378C582.833 128.538 588.607 127.118 595.045 127.118C605.079 127.118 612.511 129.911 617.339 135.496C622.261 140.987 624.723 148.749 624.723 158.784C624.723 161.34 624.581 163.991 624.297 166.736H577.437C578.478 172.511 580.513 176.676 583.543 179.232C586.667 181.788 590.974 183.066 596.465 183.066C601.009 183.066 604.748 182.687 607.683 181.93C610.617 181.173 613.315 180.131 615.777 178.806L620.463 189.74C618.096 191.255 614.877 192.58 610.807 193.716C606.736 194.852 601.813 195.42 596.039 195.42ZM609.813 156.086C609.907 150.217 608.629 146.099 605.979 143.732C603.328 141.271 599.541 140.04 594.619 140.04C584.679 140.04 578.951 145.389 577.437 156.086H609.813ZM714.799 89.488L765.067 194H746.749L737.803 173.552H689.949L681.003 194H663.253L713.237 89.488H714.799ZM707.699 133.934L696.339 159.21H731.555L720.337 134.076L714.231 119.734H713.947L707.699 133.934ZM773.1 128.822H787.868V140.892C793.075 131.709 801.216 127.118 812.292 127.118C821.475 127.118 828.906 130.053 834.586 135.922C840.266 141.697 843.106 150.075 843.106 161.056C843.106 167.872 841.686 173.883 838.846 179.09C836.101 184.297 832.314 188.32 827.486 191.16C822.753 194 817.452 195.42 811.582 195.42C806.092 195.42 801.311 194.473 797.24 192.58C793.264 190.592 790.14 187.799 787.868 184.202L788.01 228.506H773.1V128.822ZM808.032 182.498C814.186 182.498 818.919 180.557 822.232 176.676C825.546 172.7 827.202 167.635 827.202 161.482C827.202 155.045 825.546 149.933 822.232 146.146C819.014 142.265 814.28 140.324 808.032 140.324C804.624 140.324 801.406 141.176 798.376 142.88C795.442 144.489 793.075 146.856 791.276 149.98C789.572 153.009 788.72 156.559 788.72 160.63V161.624C788.72 165.695 789.572 169.339 791.276 172.558C793.075 175.682 795.442 178.143 798.376 179.942C801.311 181.646 804.53 182.498 808.032 182.498ZM859.77 128.822H874.538V140.892C879.745 131.709 887.886 127.118 898.962 127.118C908.145 127.118 915.576 130.053 921.256 135.922C926.936 141.697 929.776 150.075 929.776 161.056C929.776 167.872 928.356 173.883 925.516 179.09C922.771 184.297 918.984 188.32 914.156 191.16C909.423 194 904.122 195.42 898.252 195.42C892.762 195.42 887.981 194.473 883.91 192.58C879.934 190.592 876.81 187.799 874.538 184.202L874.68 228.506H859.77V128.822ZM894.702 182.498C900.856 182.498 905.589 180.557 908.902 176.676C912.216 172.7 913.872 167.635 913.872 161.482C913.872 155.045 912.216 149.933 908.902 146.146C905.684 142.265 900.95 140.324 894.702 140.324C891.294 140.324 888.076 141.176 885.046 142.88C882.112 144.489 879.745 146.856 877.946 149.98C876.242 153.009 875.39 156.559 875.39 160.63V161.624C875.39 165.695 876.242 169.339 877.946 172.558C879.745 175.682 882.112 178.143 885.046 179.942C887.981 181.646 891.2 182.498 894.702 182.498Z" fill="#282A36"/>
<path d="M940.83 91.985H951.285L959.7 109.58L962.42 116.635L965.14 109.58L973.47 91.985H983.67L963.185 131H961.4L940.83 91.985ZM994.465 69.46L1004.07 66.74V131H994.465V69.46Z" fill="#282A36"/>
</svg>
